<svg width="24" height="24" viewBox="0 0 24 24" fill="none" xmlns="http://www.w3.org/2000/svg">
  <path fill-rule="evenodd" clip-rule="evenodd" d="M12 7a5 5 0 1 0 0 10 5 5 0 0 0 0-10zm-3 5a3 3 0 1 1 6 0 3 3 0 0 1-6 0z" fill="white"/>
  <path d="M18 5a1 1 0 1 0 0 2 1 1 0 0 0 0-2z" fill="white"/>
  <path fill-rule="evenodd" clip-rule="evenodd" d="M5 2a3 3 0 0 0-3 3v14a3 3 0 0 0 3 3h14a3 3 0 0 0 3-3V5a3 3 0 0 0-3-3H5zm14 2H5a1 1 0 0 0-1 1v14a1 1 0 0 0 1 1h14a1 1 0 0 0 1-1V5a1 1 0 0 0-1-1z" fill="white"/>
</svg> 