<svg width="24" height="24" viewBox="0 0 24 24" fill="none" xmlns="http://www.w3.org/2000/svg">
  <path fill-rule="evenodd" clip-rule="evenodd" d="M12 2C6.477 2 2 6.477 2 12c0 5.524 4.477 10 10 10s10-4.476 10-10c0-5.523-4.477-10-10-10zm4.111 14.667a6.566 6.566 0 0 1-4.111 1.444 6.566 6.566 0 0 1-4.111-1.444A6.43 6.43 0 0 1 5.444 12c0-1.556.556-2.889 1.445-4.111A6.566 6.566 0 0 1 12 5.444c1.556 0 3 .556 4.111 1.445A6.43 6.43 0 0 1 18.556 12c0 1.556-.556 2.889-1.445 4.111zM12 7.111a4.889 4.889 0 1 0 0 9.778 4.889 4.889 0 0 0 0-9.778z" fill="white"/>
</svg> 